<svg width="126" height="126" viewBox="0 0 126 126" fill="none" xmlns="http://www.w3.org/2000/svg">
<path d="M112 0C115.713 0 119.274 1.475 121.899 4.1005C124.525 6.72601 126 10.287 126 14V112C126 115.713 124.525 119.274 121.899 121.899C119.274 124.525 115.713 126 112 126H14C10.287 126 6.72601 124.525 4.1005 121.899C1.475 119.274 0 115.713 0 112V14C0 10.287 1.475 6.72601 4.1005 4.1005C6.72601 1.475 10.287 0 14 0H112ZM108.5 108.5V71.4C108.5 65.3478 106.096 59.5434 101.816 55.2638C97.5366 50.9842 91.7322 48.58 85.68 48.58C79.73 48.58 72.8 52.22 69.44 57.68V49.91H49.91V108.5H69.44V73.99C69.44 68.6 73.78 64.19 79.17 64.19C81.7691 64.19 84.2618 65.2225 86.0996 67.0604C87.9375 68.8982 88.97 71.3909 88.97 73.99V108.5H108.5ZM27.16 38.92C30.2789 38.92 33.2702 37.681 35.4756 35.4756C37.681 33.2702 38.92 30.2789 38.92 27.16C38.92 20.65 33.67 15.33 27.16 15.33C24.0225 15.33 21.0135 16.5764 18.7949 18.7949C16.5764 21.0135 15.33 24.0225 15.33 27.16C15.33 33.67 20.65 38.92 27.16 38.92ZM36.89 108.5V49.91H17.5V108.5H36.89Z" fill="white"/>
</svg>
