<svg width="126" height="126" viewBox="0 0 126 126" fill="none" xmlns="http://www.w3.org/2000/svg">
<path d="M35 3.5H63H91C108.397 3.5 122.5 17.6031 122.5 35V91C122.5 108.397 108.397 122.5 91 122.5H35C17.6031 122.5 3.5 108.397 3.5 91V35C3.5 17.6031 17.6031 3.5 35 3.5Z" stroke="white" stroke-width="7" stroke-linecap="round" stroke-linejoin="round"/>
<path d="M63 38.5C76.531 38.5 87.5 49.469 87.5 63C87.5 76.531 76.531 87.5 63 87.5C49.469 87.5 38.5 76.5307 38.5 63C38.5 49.469 49.469 38.5 63 38.5Z" stroke="white" stroke-width="7" stroke-linecap="round" stroke-linejoin="round"/>
<path d="M97.9453 38.3906C103.654 38.3906 108.281 33.7631 108.281 28.0547C108.281 22.3463 103.654 17.7188 97.9453 17.7188C92.2369 17.7188 87.6094 22.3463 87.6094 28.0547C87.6094 33.7631 92.2369 38.3906 97.9453 38.3906Z" fill="white"/>
</svg>
