<svg width="126" height="126" viewBox="0 0 126 126" fill="none" xmlns="http://www.w3.org/2000/svg">
<g clip-path="url(#clip0_104_236)">
<path d="M107.638 18.3333C101.833 12.4991 94.919 7.87326 87.2986 4.72568C79.6782 1.57811 71.5042 -0.0282246 63.2533 0.000375288C28.6824 0.000375288 0.506534 28.0353 0.506534 62.4332C0.506534 73.4582 3.4191 84.1681 8.86432 93.6181L0 126L33.2412 117.306C42.4221 122.283 52.7427 124.929 63.2533 124.929C97.8241 124.929 126 96.8941 126 62.4962C126 45.8012 119.478 30.1143 107.638 18.3333ZM63.2533 114.345C53.8824 114.345 44.7015 111.825 36.6603 107.1L34.7608 105.966L15.006 111.132L20.2613 91.9801L18.995 90.0271C13.7887 81.755 11.0243 72.1934 11.0171 62.4332C11.0171 33.8313 34.4442 10.5213 63.1899 10.5213C77.1196 10.5213 90.2261 15.9393 100.04 25.7673C104.9 30.5803 108.751 36.305 111.37 42.6098C113.989 48.9146 115.325 55.674 115.299 62.4962C115.426 91.0981 91.999 114.345 63.2533 114.345ZM91.8724 75.5372C90.2894 74.7812 82.5648 71.0012 81.1719 70.4342C79.7156 69.9302 78.7025 69.6782 77.6261 71.1902C76.5497 72.7652 73.5739 76.2932 72.6874 77.3011C71.801 78.3721 70.8512 78.4981 69.2683 77.6791C67.6854 76.9231 62.6201 75.2222 56.6683 69.9302C51.9829 65.7722 48.8804 60.6692 47.9306 59.0942C47.0442 57.5192 47.804 56.7002 48.6271 55.8812C49.3236 55.1882 50.21 54.0542 50.9698 53.1722C51.7296 52.2902 52.0462 51.5972 52.5528 50.5892C53.0593 49.5182 52.806 48.6362 52.4261 47.8802C52.0462 47.1242 48.8804 39.4383 47.6141 36.2883C46.3477 33.2643 45.0181 33.6423 44.0683 33.5793H41.0291C39.9528 33.5793 38.3065 33.9573 36.8502 35.5323C35.4573 37.1073 31.405 40.8873 31.405 48.5732C31.405 56.2592 37.0402 63.6932 37.8 64.7012C38.5598 65.7722 48.8804 81.5221 64.5829 88.2631C68.3186 89.9011 71.2311 90.8461 73.5105 91.5391C77.2462 92.7361 80.6653 92.5471 83.3879 92.1691C86.4271 91.7281 92.6955 88.3891 93.9618 84.7351C95.2914 81.0811 95.2915 77.9941 94.8482 77.3011C94.405 76.6082 93.4553 76.2931 91.8724 75.5372Z" fill="white"/>
</g>
<defs>
<clipPath id="clip0_104_236">
<rect width="126" height="126" fill="white"/>
</clipPath>
</defs>
</svg>
