<svg width="126" height="126" viewBox="0 0 126 126" fill="none" xmlns="http://www.w3.org/2000/svg">
<path d="M62.8238 0C54.5737 0 46.4043 1.66533 38.7822 4.90091C31.1601 8.13649 24.2344 12.8789 18.4007 18.8575C6.61892 30.9318 0 47.308 0 64.3836C0 92.8411 18.0304 116.985 42.9715 125.548C46.1127 126.063 47.1179 124.067 47.1179 122.329V111.448C29.7157 115.311 26.0091 102.821 26.0091 102.821C23.1192 95.3521 19.0356 93.3562 19.0356 93.3562C13.3187 89.3644 19.4754 89.4932 19.4754 89.4932C25.7578 89.9438 29.0874 96.1247 29.0874 96.1247C34.5531 105.911 43.7882 103.014 47.3692 101.469C47.9346 97.2836 49.568 94.4507 51.3271 92.8411C37.3802 91.2315 22.7422 85.6945 22.7422 61.1644C22.7422 54.0178 25.1295 48.2877 29.2131 43.7164C28.5849 42.1069 26.386 35.411 29.8413 26.7192C29.8413 26.7192 35.1185 24.9808 47.1179 33.2863C52.081 31.8699 57.4838 31.1617 62.8238 31.1617C68.1639 31.1617 73.5667 31.8699 78.5298 33.2863C90.5292 24.9808 95.8064 26.7192 95.8064 26.7192C99.2617 35.411 97.0628 42.1069 96.4346 43.7164C100.518 48.2877 102.905 54.0178 102.905 61.1644C102.905 85.7589 88.2047 91.1671 74.195 92.7767C76.4566 94.7726 78.5298 98.7 78.5298 104.688V122.329C78.5298 124.067 79.535 126.127 82.739 125.548C107.68 116.921 125.648 92.8411 125.648 64.3836C125.648 55.9286 124.023 47.5564 120.866 39.745C117.708 31.9337 113.081 24.8361 107.247 18.8575C101.413 12.8789 94.4876 8.13649 86.8655 4.90091C79.2434 1.66533 71.074 0 62.8238 0Z" fill="white"/>
</svg>
